PathFileType	4	(X/Y/Z)	/Users/itak/Documents/Research/Walk-IL/dataset/trc/00468_00167.trc
DataRate	CameraRate	NumFrames	NumMarkers	Units	OrigDataRate	OrigDataStartFrame	OrigNumFrames
100.000000	100.000000	4	53	mm	100.000000	0	637
Frame#	Time	RPSI			LPSI			L3			STRN			T10			C7			CLAV			RBAK			LBAK			LSHO			LUPA			LAEL			LAOL			LWTS			LWPS			LFRA			LIFD			LHPS			LHTS			RSHO			RUPA			RAEL			RAOL			RWTS			RWPS			RFRA			RIFD			RHTS			RHPS			RBHD			LFHD			RFHD			LBHD			LHIP			RHIP			RASI			LASI			LKNE			LTHI			LANK			LTIP			LTOE			LMT1			LMT5			LHEE			RKNE			RTHI			RANK			RTIP			RTOE			RMT1			RMT5			RHEE			
		X1	Y1	Z1	X2	Y2	Z2	X3	Y3	Z3	X4	Y4	Z4	X5	Y5	Z5	X6	Y6	Z6	X7	Y7	Z7	X8	Y8	Z8	X9	Y9	Z9	X10	Y10	Z10	X11	Y11	Z11	X12	Y12	Z12	X13	Y13	Z13	X14	Y14	Z14	X15	Y15	Z15	X16	Y16	Z16	X17	Y17	Z17	X18	Y18	Z18	X19	Y19	Z19	X20	Y20	Z20	X21	Y21	Z21	X22	Y22	Z22	X23	Y23	Z23	X24	Y24	Z24	X25	Y25	Z25	X26	Y26	Z26	X27	Y27	Z27	X28	Y28	Z28	X29	Y29	Z29	X30	Y30	Z30	X31	Y31	Z31	X32	Y32	Z32	X33	Y33	Z33	X34	Y34	Z34	X35	Y35	Z35	X36	Y36	Z36	X37	Y37	Z37	X38	Y38	Z38	X39	Y39	Z39	X40	Y40	Z40	X41	Y41	Z41	X42	Y42	Z42	X43	Y43	Z43	X44	Y44	Z44	X45	Y45	Z45	X46	Y46	Z46	X47	Y47	Z47	X48	Y48	Z48	X49	Y49	Z49	X50	Y50	Z50	X51	Y51	Z51	X52	Y52	Z52	X53	Y53	Z53	

1	0	-1344.803955078125	980.4332885742188	-461.0476379394531	-1324.650024414062	979.3821411132812	-601.870361328125	-1308.818603515625	1076.949340820312	-517.2217407226562	-1018.058471679688	1235.208618164062	-489.0986633300781	-1309.256591796875	1201.604736328125	-524.719482421875	-1211.828125	1459.8720703125	-501.2326354980469	-1040.992797851562	1351.001098632812	-494.5783386230469	-1300.394287109375	1347.853149414062	-417.8608093261719	-1237.698608398438	1418.266967773438	-605.7728881835938	-1122.755859375	1425.348876953125	-669.1455078125	-1133.311401367188	1312.281982421875	-772.50146484375	-1129.95556640625	1096.833618164062	-812.6123657226562	-1217.617797851562	1090.296630859375	-759.1824340820312	-1072.687133789062	887.5601806640625	-765.0438232421875	-1112.809692382812	877.6707153320312	-827.7042236328125	-1115.001586914062	1007.779602050781	-822.2742309570312	-1059.663940429688	739.5902099609375	-791.3662109375	-1112.475463867188	800.4034423828125	-830.4999389648438	-1061.414794921875	803.4782104492188	-778.1029052734375	-1168.183715820312	1419.547485351562	-335.5304870605469	-1202.922973632812	1363.8056640625	-262.2840881347656	-1239.682495117188	1079.681518554688	-202.1952514648438	-1289.419799804688	1065.598999023438	-245.7978210449219	-1142.72265625	870.369873046875	-244.5022125244141	-1212.171142578125	858.3565673828125	-190.4043121337891	-1238.868530273438	1020.350341796875	-193.0449371337891	-1147.034912109375	714.4756469726562	-233.5129699707031	-1131.737670898438	773.3763427734375	-233.0704498291016	-1199.591430664062	771.7914428710938	-193.1844177246094	-1086.019653320312	1642.325317382812	-396.2798461914062	-944.0186767578125	1621.26025390625	-546.1589965820312	-950.5369262695312	1620.70556640625	-415.5703735351562	-1091.793823242188	1651.668090820312	-573.1296997070312	-1184.331176757812	866.43701171875	-702.4884643554688	-1257.774047851562	865.1190795898438	-311.5806579589844	-1140.413696289062	896.6902465820312	-355.9710693359375	-1094.82177734375	892.7262573242188	-609.7059326171875	-1188.36181640625	448.222412109375	-682.2671508789062	-1163.284301757812	598.357666015625	-697.1234130859375	-1262.337524414062	44.66071319580078	-702.2973022460938	-1195.99755859375	303.2833862304688	-702.4684448242188	-1038.700561523438	42.8878288269043	-606.2808227539062	-1117.3623046875	51.73111343383789	-588.0438232421875	-1107.6484375	43.43476104736328	-702.6847534179688	-1313.54296875	50.21462249755859	-643.4974365234375	-1231.5712890625	471.2455749511719	-334.0443115234375	-1220.46484375	730.2251586914062	-293.6118774414062	-1272.891845703125	48.2548713684082	-332.7476806640625	-1227.3037109375	328.9452209472656	-323.0030212402344	-1057.57568359375	48.38947296142578	-365.7183227539062	-1117.222534179688	47.24237060546875	-408.9441833496094	-1141.469604492188	50.42107772827148	-302.7280578613281	-1335.673095703125	39.46036148071289	-380.8937683105469	
2	0.01	-1344.601440429688	980.3980102539062	-460.9869995117188	-1324.503051757812	979.2402954101562	-601.83154296875	-1308.728149414062	1076.833618164062	-517.2412109375	-1018.037536621094	1235.290283203125	-489.2005004882812	-1309.251586914062	1201.485717773438	-524.8158569335938	-1211.947387695312	1459.822387695312	-501.4599914550781	-1040.960571289062	1351.091430664062	-494.7339477539062	-1300.472045898438	1347.77685546875	-417.9782104492188	-1237.792724609375	1418.12939453125	-606.0175170898438	-1122.85009765625	1425.286743164062	-669.37744140625	-1133.155517578125	1312.182495117188	-772.644287109375	-1129.385864257812	1096.67626953125	-812.6909790039062	-1217.249389648438	1090.085327148438	-759.563232421875	-1072.087524414062	887.4840087890625	-764.8494873046875	-1111.902099609375	877.5340576171875	-827.6209106445312	-1114.280883789062	1007.622497558594	-822.3422241210938	-1062.081665039062	737.6011962890625	-789.6923217773438	-1111.484375	800.2775268554688	-830.26123046875	-1060.7939453125	803.372314453125	-777.60791015625	-1168.2841796875	1419.6240234375	-335.7308654785156	-1203.04150390625	1363.951049804688	-262.4481506347656	-1239.869873046875	1079.940551757812	-201.9205169677734	-1289.593017578125	1065.834106445312	-245.4968414306641	-1143.031616210938	870.47509765625	-243.7100830078125	-1212.611328125	858.5732421875	-189.7346496582031	-1239.070922851562	1020.626098632812	-192.7225646972656	-1147.54150390625	714.5974731445312	-232.5247039794922	-1132.16357421875	773.4898071289062	-232.1817779541016	-1200.143798828125	772.0269165039062	-192.3705444335938	-1086.010009765625	1642.358764648438	-396.5617065429688	-944.20361328125	1621.162475585938	-546.5440063476562	-950.5646362304688	1620.686889648438	-415.9336242675781	-1091.96044921875	1651.646362304688	-573.435791015625	-1184.281494140625	866.4083862304688	-702.5235595703125	-1257.524291992188	865.1640014648438	-311.5334167480469	-1140.137329101562	896.7167358398438	-355.9735107421875	-1094.57861328125	892.7457885742188	-609.7589111328125	-1188.542602539062	448.1665954589844	-682.3499755859375	-1163.265869140625	598.2758178710938	-697.1439819335938	-1262.344848632812	44.62821578979492	-702.3177490234375	-1196.1513671875	303.2689514160156	-702.4981689453125	-1038.728759765625	42.91389083862305	-606.2808837890625	-1117.354858398438	51.75476837158203	-588.0517578125	-1107.655883789062	43.44309616088867	-702.6874389648438	-1313.603393554688	50.18536758422852	-643.4959716796875	-1231.527099609375	471.2232055664062	-334.0155944824219	-1220.249755859375	730.2434692382812	-293.5404052734375	-1272.897216796875	48.24999237060547	-332.7375183105469	-1227.311767578125	328.9454650878906	-322.9653930664062	-1057.577026367188	48.38711547851562	-365.7044677734375	-1117.210571289062	47.26175689697266	-408.9249877929688	-1141.478637695312	50.41746520996094	-302.7177734375	-1335.669311523438	39.45927429199219	-380.8982543945312	
3	0.02	-1344.341430664062	980.3493041992188	-460.895751953125	-1324.322875976562	979.0655517578125	-601.7616577148438	-1308.614135742188	1076.688598632812	-517.2591552734375	-1018.024291992188	1235.389038085938	-489.3324584960938	-1309.263305664062	1201.3310546875	-524.932861328125	-1212.116333007812	1459.760009765625	-501.747314453125	-1040.936279296875	1351.20458984375	-494.9292602539062	-1300.575805664062	1347.67822265625	-418.1313171386719	-1237.9326171875	1417.951416015625	-606.3209838867188	-1122.991943359375	1425.200073242188	-669.6643676757812	-1132.97705078125	1312.029907226562	-772.8165283203125	-1128.655883789062	1096.462158203125	-812.7808837890625	-1216.758911132812	1089.791381835938	-760.02490234375	-1071.30322265625	887.3921508789062	-764.6090698242188	-1110.745361328125	877.3680419921875	-827.5235595703125	-1113.375	1007.426391601562	-822.4048461914062	-1064.65625	735.353515625	-787.771728515625	-1110.195434570312	800.110595703125	-830.0136108398438	-1060.308349609375	803.0280151367188	-776.8983154296875	-1168.419189453125	1419.729370117188	-335.9879455566406	-1203.197387695312	1364.138916015625	-262.657958984375	-1240.084716796875	1080.266967773438	-201.5951232910156	-1289.78369140625	1066.129516601562	-245.1570739746094	-1143.416625976562	870.60693359375	-242.7496185302734	-1213.141723632812	858.8539428710938	-188.9092102050781	-1239.317749023438	1020.9736328125	-192.3213195800781	-1148.154052734375	714.7553100585938	-231.3300933837891	-1132.683715820312	773.6339111328125	-231.0883483886719	-1200.80126953125	772.3275146484375	-191.3827972412109	-1086.015991210938	1642.407592773438	-396.9225463867188	-944.4269409179688	1621.049682617188	-547.0298461914062	-950.6171875	1620.666381835938	-416.3869323730469	-1092.169067382812	1651.6181640625	-573.8378295898438	-1184.224487304688	866.3662109375	-702.5601196289062	-1257.180053710938	865.2174682617188	-311.4723510742188	-1139.754760742188	896.7588500976562	-355.962646484375	-1094.282592773438	892.7562866210938	-609.8219604492188	-1188.7763671875	448.0995178222656	-682.4468994140625	-1163.265502929688	598.1693115234375	-697.1859741210938	-1262.360107421875	44.5882453918457	-702.341064453125	-1196.350341796875	303.2542114257812	-702.5433349609375	-1038.763305664062	42.94278717041016	-606.2938232421875	-1117.365478515625	51.76911926269531	-588.058837890625	-1107.664916992188	43.45304489135742	-702.6911010742188	-1313.671997070312	50.13876342773438	-643.5128784179688	-1231.448120117188	471.2044372558594	-333.9658813476562	-1219.957885742188	730.267822265625	-293.4422302246094	-1272.899536132812	48.24272918701172	-332.7258605957031	-1227.298095703125	328.9417114257812	-322.9216918945312	-1057.576538085938	48.3824577331543	-365.68701171875	-1117.194946289062	47.28535079956055	-408.9008483886719	-1141.48876953125	50.41178512573242	-302.7030334472656	-1335.664306640625	39.46067047119141	-380.9045715332031	
4	0.03	-1344.032470703125	980.2863159179688	-460.7714233398438	-1324.120483398438	978.8668823242188	-601.6544799804688	-1308.481811523438	1076.520874023438	-517.2704467773438	-1018.023864746094	1235.501342773438	-489.4917297363281	-1309.296997070312	1201.145874023438	-525.064208984375	-1212.336791992188	1459.686767578125	-502.0845336914062	-1040.931762695312	1351.3369140625	-495.1572570800781	-1300.70458984375	1347.56103515625	-418.3154296875	-1238.122314453125	1417.739624023438	-606.6676025390625	-1123.18603515625	1425.088745117188	-669.9917602539062	-1132.791259765625	1311.819946289062	-773.0089721679688	-1127.791870117188	1096.194702148438	-812.8712768554688	-1216.155151367188	1089.415649414062	-760.5325317382812	-1070.34228515625	887.292236328125	-764.3353271484375	-1109.380981445312	877.1798095703125	-827.4185791015625	-1112.31787109375	1007.199645996094	-822.4486083984375	-1066.843505859375	733.1825561523438	-785.8646850585938	-1108.64794921875	799.9100952148438	-829.7916259765625	-1059.754516601562	802.5601196289062	-776.0977172851562	-1168.588012695312	1419.864135742188	-336.2931518554688	-1203.38671875	1364.364868164062	-262.906005859375	-1240.308837890625	1080.649536132812	-201.2391510009766	-1289.972045898438	1066.473999023438	-244.8079071044922	-1143.850708007812	870.762451171875	-241.6763153076172	-1213.728271484375	859.1943969726562	-187.97216796875	-1239.593139648438	1021.380676269531	-191.8609619140625	-1148.839599609375	714.9464111328125	-229.9956207275391	-1133.2705078125	773.8062744140625	-229.8498687744141	-1201.522705078125	772.6831665039062	-190.2724609375	-1086.05126953125	1642.473510742188	-397.3528442382812	-944.6749877929688	1620.9296875	-547.5955200195312	-950.7051391601562	1620.646728515625	-416.9126281738281	-1092.410522460938	1651.584106445312	-574.3250122070312	-1184.161865234375	866.3064575195312	-702.5916137695312	-1256.742797851562	865.2739868164062	-311.3990783691406	-1139.271606445312	896.8171997070312	-355.9338684082031	-1093.951782226562	892.7515258789062	-609.891845703125	-1189.058471679688	448.0240478515625	-682.5511474609375	-1163.29736328125	598.042724609375	-697.2517700195312	-1262.384887695312	44.54259490966797	-702.3662109375	-1196.58935546875	303.2419738769531	-702.6057739257812	-1038.802978515625	42.97433471679688	-606.3201904296875	-1117.399658203125	51.76988220214844	-588.0648193359375	-1107.675048828125	43.46387481689453	-702.6956176757812	-1313.740966796875	50.07307815551758	-643.5567016601562	-1231.327758789062	471.1908569335938	-333.8936462402344	-1219.59130859375	730.2989501953125	-293.3131408691406	-1272.89794921875	48.23397827148438	-332.7141418457031	-1227.253662109375	328.9326477050781	-322.8753356933594	-1057.572875976562	48.37495422363281	-365.6674194335938	-1117.175903320312	47.31110382080078	-408.8723754882812	-1141.498413085938	50.40385055541992	-302.68359375	-1335.658325195312	39.46549224853516	-380.9125366210938	
